<svg xmlns="http://www.w3.org/2000/svg" viewBox="0 0 64 64" fill="none">
  <defs>
    <linearGradient id="g" x1="0" y1="0" x2="0" y2="1">
      <stop offset="0%" stop-color="#22c55e"/>
      <stop offset="100%" stop-color="#16a34a"/>
    </linearGradient>
  </defs>
  <rect width="64" height="64" rx="12" fill="#f6fff9"/>
  <g transform="translate(12 8)">
    <path d="M20 44c0-10 2-18 10-26 4-4 8-6 12-6-2 4-5 8-8 11-5 5-9 9-14 21z" fill="url(#g)"/>
    <path d="M20 44c0-10-2-18-10-26-4-4-8-6-12-6 2 4 5 8 8 11 5 5 9 9 14 21z" fill="url(#g)" opacity="0.85"/>
    <path d="M20 44V10" stroke="#065f46" stroke-width="2" stroke-linecap="round"/>
    <circle cx="20" cy="10" r="2" fill="#10b981"/>
  </g>
</svg>

